<svg xmlns="http://www.w3.org/2000/svg" height="512" viewBox="0 0 64 64" width="512"><g id="Layer_17" data-name="Layer 17"><circle cx="41" cy="28" fill="#ccc" r="12"></circle><circle cx="41" cy="28" fill="#f2f2f2" r="9"></circle><path d="m52 10a2.978 2.978 0 0 1 .779-2h-35.779v4h35.779a2.978 2.978 0 0 1 -.779-2z" fill="#a8abb0"></path><path d="m19 39h8v19h-8z" fill="#92969c"></path><path d="m19 39v15h3a3 3 0 0 0 3-3v-12z" fill="#a8abb0"></path><path d="m1 58h62v4h-62z" fill="#ccc"></path><path d="m1 58v2h56a2.99 2.99 0 0 0 2.816-2z" fill="#f2f2f2"></path><g fill="#ba6f64"><path d="m7 58h10v4h-10z"></path><path d="m27 58h10v4h-10z"></path><path d="m47 58h10v4h-10z"></path></g><path d="m18 52a2.982 2.982 0 0 0 -1.08.208 4 4 0 0 0 -7.84 0 3 3 0 1 0 -1.08 5.792h10a3 3 0 0 0 0-6z" fill="#749d58"></path><path d="m16.667 54a1.98 1.98 0 0 0 -.72.139 2.666 2.666 0 0 0 -5.227 0 2 2 0 1 0 -.72 3.861h6.667a2 2 0 0 0 0-4z" fill="#86b566"></path><path d="m38 52a2.982 2.982 0 0 0 -1.08.208 4 4 0 0 0 -7.84 0 3 3 0 1 0 -1.08 5.792h10a3 3 0 0 0 0-6z" fill="#749d58"></path><path d="m36.667 54a1.98 1.98 0 0 0 -.72.139 2.666 2.666 0 0 0 -5.227 0 2 2 0 1 0 -.72 3.861h6.667a2 2 0 0 0 0-4z" fill="#86b566"></path><path d="m7 58h10v2h-10z" fill="#d68173"></path><path d="m27 58h10v2h-10z" fill="#d68173"></path><path d="m47 58h10v2h-10z" fill="#d68173"></path><path d="m21 7h4v32h-4z" fill="#92969c"></path><circle cx="23" cy="5" fill="#ecbb65" r="3"></circle><path d="m23 34v-16a2 2 0 0 0 -2-2v20a2 2 0 0 0 2-2z" fill="#a8abb0"></path><path d="m23 2a2.988 2.988 0 0 0 -2.221 5h1.221a3 3 0 0 0 3-3v-1.221a2.978 2.978 0 0 0 -2-.779z" fill="#f4d294"></path><circle cx="55" cy="10" fill="#ecbb65" r="3"></circle><path d="m55 7a2.988 2.988 0 0 0 -2.221 5h1.221a3 3 0 0 0 3-3v-1.221a2.978 2.978 0 0 0 -2-.779z" fill="#f4d294"></path><path d="m30 10h18a2 2 0 0 0 2-2h-22a2 2 0 0 0 2 2z" fill="#92969c"></path><path d="m37 28 1 8h6l1-8z" fill="#ccc"></path><path d="m36 24h10v4h-10z" fill="#749d58"></path><path d="m36 26h7a2 2 0 0 0 2-2h-9z" fill="#86b566"></path><rect fill="#f2f2f2" height="5" rx="1" width="4" x="39" y="29"></rect><path d="m63 59v-2h-21.556a3.959 3.959 0 0 0 .556-2 4.024 4.024 0 0 0 -4.408-3.978 5 5 0 0 0 -9.184 0 3.7 3.7 0 0 0 -.408 0v-12.022a1 1 0 0 0 -1-1h-1v-25h8v4.063a13 13 0 1 0 14 0v-4.063h4.382a4 4 0 1 0 0-6h-25.938a3.959 3.959 0 0 0 .556-2 4 4 0 0 0 -8 0 3.959 3.959 0 0 0 .556 2h-2.556a1 1 0 0 0 -1 1v4a1 1 0 0 0 1 1h3v25h-1a1 1 0 0 0 -1 1v12.024a3.7 3.7 0 0 0 -.408 0 5 5 0 0 0 -9.184 0 4.017 4.017 0 0 0 -4.408 3.976 3.959 3.959 0 0 0 .556 2h-3.556v2h5v2h-5v2h62v-2h-5v-2zm-37 0v2h-8v-2zm2 0h8v2h-8zm10 0h8v2h-8zm-9.281-5.859a1 1 0 0 0 1.341-.736 3 3 0 0 1 5.88 0 1 1 0 0 0 1.341.736 2 2 0 1 1 .719 3.859h-10a2 2 0 1 1 .719-3.859zm-2.719-44.141h25.142a3.592 3.592 0 0 0 0 2h-25.142zm26 19a11 11 0 1 1 -11-11 11.013 11.013 0 0 1 11 11zm-6-12a12.964 12.964 0 0 0 -10 0v-3h10zm9-8a2 2 0 1 1 -2 2 2 2 0 0 1 2-2zm-32-5a2 2 0 1 1 -2 2 2 2 0 0 1 2-2zm-5 8v-2h2v2zm4-2.142a3.592 3.592 0 0 0 2 0v29.142h-2zm-2 31.142h6v11.544a4.026 4.026 0 0 0 -2 3.456 3.959 3.959 0 0 0 .556 2h-3.112a3.959 3.959 0 0 0 .556-2 4.025 4.025 0 0 0 -2-3.454zm-14 15a1.994 1.994 0 0 1 2.719-1.859 1 1 0 0 0 1.341-.736 3 3 0 0 1 5.88 0 1 1 0 0 0 1.341.736 2 2 0 1 1 .719 3.859h-10a2 2 0 0 1 -2-2zm2 4h8v2h-8zm48 2h-8v-2h8z"></path><path d="m41 23h-5a1 1 0 0 0 -1 1v4a1 1 0 0 0 1 1h.117l.891 7.124a1 1 0 0 0 .992.876h6a1 1 0 0 0 .992-.876l.891-7.124h.117a1 1 0 0 0 1-1v-4a1 1 0 0 0 -1-1h-3v-2h2v-2h-3a1 1 0 0 0 -1 1zm2.117 12h-4.234l-.75-6h5.734zm1.883-8h-8v-2h8z"></path></g></svg>