<svg xmlns="http://www.w3.org/2000/svg" height="512pt" viewBox="-58 0 512 512" width="512pt"><path d="m259.8125 293.34375h-215.3125c-4.417969 0-8-3.582031-8-8v-269.84375c0-4.417969 3.582031-8 8-8h215.3125c4.417969 0 8 3.582031 8 8v269.84375c0 4.417969-3.582031 8-8 8zm0 0" fill="#6a7193"></path><path d="m245.8125 29.5v241.84375h-187.3125v-241.84375zm0 0" fill="#e9e9ea"></path><path d="m245.8125 177.664062c-21.664062-1.605468-44.476562-.136718-59.535156 11.804688-12.460938 9.882812-17.683594 25.59375-27.660156 37.535156-11.355469 13.589844-28.453126 17.699219-45.632813 17.113282-16.339844-.558594-33.167969-4.335938-49.257813.226562-1.777343.503906-3.523437 1.105469-5.226562 1.800781v25.203125h187.308594v-93.683594zm0 0" fill="#8cbafa"></path><path d="m314.363281 267.320312c-1.839843-1.664062-3.769531-3.292968-5.773437-4.933593-7.253906-5.9375-14.691406-12.726563-17.035156-21.933594-1.832032-7.207031-.261719-14.976563-2.101563-22.179687-1.683594-6.609376-6.222656-12.265626-11.886719-15.871094-8.28125-5.269532-19.292968-6.511719-28.511718-3.296875-10.664063 3.71875-18.148438 14.644531-15.429688 26.382812.253906 1.089844.589844 2.15625 1.015625 3.1875 2.859375 6.945313 9.195313 11.871094 12.253906 18.730469 4.871094 10.9375-1.660156 20.582031-3.695312 31.226562-1.539063 8.050782.113281 16.523438 4.230469 23.449219 6.699218 11.265625 16.410156 17.140625 17.957031 31.417969.695312 6.398438.382812 12.890625 1.261719 19.261719 2.175781 15.753906 11.96875 30.332031 25.621093 37.066406 27.550781 13.597656 36.210938-41.382813 40.636719-67.785156 1.929688-11.503907.515625-23.785157-3.78125-34.578125-3.351562-8.410156-8.523438-14.492188-14.761719-20.144532zm0 0" fill="#c9ea6e"></path><path d="m318.851562 404.59375c12.722657-4.257812 21.5-18 21.886719-31.464844.285157-9.859375-3.464843-19.714844-1.097656-29.523437 3.863281-16.007813 21.101563-11.757813 29.285156-22.824219 5.097657-6.886719 2.605469-16.453125 1.78125-24.265625-.628906-5.976563-.113281-11.488281 3.007813-16.648437 3.28125-5.425782 8.292968-9.570313 11.398437-15.144532 4.859375-8.71875 3.804688-20.480468-2.523437-28.15625-7.453125-9.03125-19.761719-14.160156-31.257813-12.820312-11.492187 1.339844-22.1875 8.550781-27.90625 18.8125-5.605469 10.054687-7.117187 20.484375-17.445312 27.226562-5.097657 3.332032-11.007813 5.144532-16.285157 8.175782-5.277343 3.03125-10.175781 7.859374-10.824218 14.003906-1.101563 10.457031 10.246094 19.054687 9.324218 29.527344-.589843 6.726562-6.007812 11.746093-9.929687 17.183593-7.074219 9.8125-9.726563 22.808594-7.074219 34.6875 2.652344 11.875 10.558594 22.417969 21.097656 28.132813 7.296876 3.957031 15.921876 5.625 23.996094 3.816406.871094-.199219 1.726563-.4375 2.566406-.71875zm0 0" fill="#aed559"></path><path d="m382.589844 236.566406c-5.457032-6.613281-13.515625-11.132812-21.957032-12.554687 1.527344 1.300781 2.9375 2.726562 4.207032 4.265625 6.332031 7.671875 7.386718 19.433594 2.527344 28.15625-3.105469 5.574218-8.117188 9.714844-11.402344 15.140625-3.121094 5.164062-3.636719 10.675781-3.007813 16.648437.824219 7.8125 3.316407 17.378906-1.78125 24.269532-8.183593 11.066406-25.421875 6.8125-29.285156 22.824218-2.371094 9.808594 1.382813 19.664063 1.097656 29.523438-.386719 13.464844-9.164062 27.203125-21.886719 31.460937-.835937.28125-1.695312.523438-2.566406.71875-4.136718.925781-8.417968.941407-12.589844.203125 1.976563 1.621094 4.101563 3.054688 6.34375 4.269532 7.300782 3.960937 15.921876 5.625 23.996094 3.816406.871094-.195313 1.726563-.4375 2.566406-.71875 12.722657-4.257813 21.5-18 21.886719-31.460938.285157-9.863281-3.464843-19.714844-1.097656-29.523437 3.863281-16.011719 21.101563-11.757813 29.285156-22.824219 5.097657-6.890625 2.605469-16.457031 1.78125-24.269531-.628906-5.972657-.113281-11.484375 3.007813-16.648438 3.285156-5.425781 8.296875-9.566406 11.402344-15.140625 4.859374-8.71875 3.804687-20.480468-2.527344-28.15625zm0 0" fill="#7fab38"></path><path d="m332.972656 504.496094h-61.292968c-6.753907 0-12.464844-4.988282-13.371094-11.679688l-13.171875-97.230468c-.816407-6.015626 3.863281-11.371094 9.933593-11.371094h94.511719c6.070313 0 10.75 5.355468 9.933594 11.371094l-13.171875 97.230468c-.90625 6.691406-6.617188 11.679688-13.371094 11.679688zm0 0" fill="#f9aa4b"></path><path d="m349.582031 384.210938h-25.855469c6.070313 0 10.75 5.355468 9.933594 11.375l-13.171875 97.230468c-.90625 6.691406-6.621093 11.679688-13.371093 11.679688h25.855468c6.753906 0 12.464844-4.988282 13.371094-11.679688l13.175781-97.230468c.8125-6.019532-3.867187-11.375-9.9375-11.375zm0 0" fill="#c1762b"></path><path d="m155.6875 379.257812h-123.222656c-13.789063 0-24.964844-11.175781-24.964844-24.964843 0-13.785157 11.175781-24.964844 24.964844-24.964844h123.222656c13.789062 0 24.964844 11.179687 24.964844 24.964844 0 13.789062-11.175782 24.964843-24.964844 24.964843zm0 0" fill="#ce675d"></path><path d="m155.6875 329.328125h-26.886719c13.789063 0 24.964844 11.175781 24.964844 24.964844 0 13.789062-11.175781 24.964843-24.964844 24.964843h26.886719c13.789062 0 24.964844-11.175781 24.964844-24.964843 0-13.789063-11.175782-24.964844-24.964844-24.964844zm0 0" fill="#aa4b44"></path><path d="m134.828125 76.910156c0 12.332032-10 22.332032-22.332031 22.332032-12.335938 0-22.332032-10-22.332032-22.332032 0-12.335937 9.996094-22.332031 22.332032-22.332031 12.332031 0 22.332031 9.996094 22.332031 22.332031zm0 0" fill="#ffcd34"></path><path d="m36.5 69.410156c4.144531 0 7.5-3.359375 7.5-7.5v-46.410156c0-.273438.226562-.5.5-.5h215.3125c.273438 0 .5.226562.5.5v151.847656c0 4.144532 3.355469 7.5 7.5 7.5 4.140625 0 7.5-3.355468 7.5-7.5v-151.847656c0-8.546875-6.953125-15.5-15.5-15.5h-215.3125c-8.546875 0-15.5 6.953125-15.5 15.5v46.410156c0 4.140625 3.355469 7.5 7.5 7.5zm0 0"></path><path d="m388.375 231.800781c-9.097656-11.039062-23.976562-17.132812-37.90625-15.5-13.851562 1.613281-26.722656 10.277344-33.589844 22.601563-1.8125 3.246094-3.175781 6.386718-4.496094 9.425781-.835937 1.917969-1.617187 3.71875-2.445312 5.390625-4.96875-4.339844-9.640625-9.332031-11.113281-15.125-.703125-2.75-.757813-5.960938-.816407-9.359375-.070312-3.921875-.148437-8.363281-1.28125-12.820313-2.078124-8.117187-7.589843-15.53125-15.128906-20.339843-8.238281-5.242188-18.59375-7.257813-28.289062-5.726563v-12.449218c.003906-.160157.003906-.324219 0-.484376v-147.914062c0-4.144531-3.359375-7.5-7.5-7.5h-187.308594c-4.144531 0-7.5 3.355469-7.5 7.5v241.847656c0 4.144532 3.355469 7.5 7.5 7.5h155.308594c4.140625 0 7.5-3.355468 7.5-7.5 0-4.140625-3.359375-7.5-7.5-7.5h-147.808594v-12.351562c10.238281-2.84375 21.125-1.886719 32.652344-.871094 4.59375.40625 9.34375.824219 14.074218.988281 22.320313.757813 40.183594-6.085937 51.644532-19.800781 4.3125-5.164062 7.71875-10.8125 11.011718-16.273438 4.671876-7.746093 9.082032-15.0625 15.554688-20.195312 10.011719-7.941406 25.546875-11.421875 47.371094-10.59375v11.582031c-11.234375 8.105469-15.789063 22.492188-10.605469 35.203125 3.304687 8.019532 9.875 13.394532 12.347656 18.925782 4.269531 9.589843-5.363281 19.664062-4.890625 35.386718h-190.660156c-.273438 0-.5-.226562-.5-.5v-193.4375c0-4.144531-3.359375-7.5-7.5-7.5-4.144531 0-7.5 3.355469-7.5 7.5v193.4375c0 8.546875 6.953125 15.5 15.5 15.5h193.925781c6.074219 14.4375 18.0625 20.195313 19.503907 33.457032 1.078124 9.976562-.46875 19.574218 4.851562 32.96875.160156 2.597656.519531 5.183593 1.089844 7.726562.125.574219.265625 1.144531.414062 1.714844h-9.214844c-5.058593 0-9.871093 2.183594-13.199218 5.996094-3.328125 3.808593-4.847656 8.867187-4.167969 13.882812l13.175781 97.230469c1.402344 10.363281 10.347656 18.175781 20.800782 18.175781h61.292968c10.457032 0 19.398438-7.8125 20.804688-18.175781l13.171875-97.230469c.679687-5.015625-.839844-10.074219-4.167969-13.882812-6-6.867188-14.335938-5.914063-14.78125-5.996094.632812-5.6875-.015625-10.757813-.765625-16.355469-3.175781-23.675781 3.417969-20.019531 17.195313-26.703125 3.730468-1.808594 5.285156-6.292969 3.476562-10.019531-1.808594-3.726563-6.292969-5.285157-10.019531-3.476563-1.589844.773438-3.355469 1.441406-5.226563 2.148438-7.242187 2.730468-17.15625 6.476562-20.3125 19.542968-1.757812 7.269532-.8125 14.300782.019532 20.503907.5 3.722656.972656 7.238281.875 10.554687-.039063 1.265625-.167969 2.539063-.390626 3.804688h-17.878906c-1.640625-38.4375 12.40625-77.46875 38.277344-105.597656 2.804688-3.046876 2.605469-7.792969-.445312-10.597657-3.046876-2.800781-7.792969-2.605469-10.597657.445313-28.378906 30.859375-43.863281 73.601562-42.246093 115.75h-19.925782c-1.980468-5.074219-2.070312-8.347656-2.351562-11.71875-.597656-23.007813 16.554687-26.535156 17.984375-42.847656 1.144531-13.007813-10.070313-22.457032-9.332031-29.410157.8125-7.773437 15.929687-11.558593 23.757812-16.671875 12.511719-8.183594 14.523438-20.25 19.886719-29.855468 4.5625-8.191407 13.078125-13.945313 22.226562-15.011719 8.851563-1.03125 18.742188 3.042969 24.597657 10.148437 4.339843 5.257813 5.097656 13.738282 1.761718 19.722656-5.011718 8.992188-17.5625 14.921876-15.316406 36.242188.136719 1.273438.3125 2.582031.488281 3.921875l.152344 1.148437c.539063 4.109376 4.308594 6.996094 8.410156 6.464844 4.105469-.535156 7-4.300781 6.464844-8.410156l-.15625-1.183594c-2.535156-19.019531 5.34375-17.035156 13.058594-30.882812 6.382812-11.449219 5.027343-26.488282-3.292969-36.570313zm-36.289062 162.777344-13.175782 97.230469c-.398437 2.957031-2.953125 5.191406-5.9375 5.191406h-61.292968c-2.984376 0-5.539063-2.230469-5.9375-5.191406-13.183594-101.441406-14.148438-97.425782-12.570313-99.230469 1.570313-1.800781-2.078125-.3125 96.410156-.867187 1.527344 0 2.707031 1.347656 2.503907 2.867187zm-170.46875-210.988281c-8.597657 6.820312-13.925782 15.660156-19.078126 24.207031-3.140624 5.203125-6.105468 10.121094-9.675781 14.394531-8.511719 10.183594-21.824219 15.023438-39.621093 14.429688-4.328126-.148438-8.671876-.53125-13.273438-.9375-11.066406-.976563-22.472656-1.976563-33.96875.386718v-199.070312h172.308594v132.746094c-25.285156-.863282-43.882813 3.6875-56.691406 13.84375zm104.574218 87.738281c-1.59375-3.640625-3.238281-7.332031-4.921875-11.046875-1.710937-3.769531-6.15625-5.441406-9.925781-3.730469-3.773438 1.710938-5.445312 6.152344-3.734375 9.925781 2.398437 5.296876 4.71875 10.539063 6.914063 15.640626-1.714844 2.828124-2.773438 5.875-3.101563 9.050781-.808594 7.585937 2.546875 13.769531 5.503906 19.226562 2.089844 3.851563 4.0625 7.488281 3.800781 10.441407-.257812 2.9375-2.792968 6.117187-5.476562 9.480468-.773438.96875-1.566406 1.964844-2.34375 2.996094-.019531-.207031-.039062-.414062-.0625-.621094-1.820312-16.757812-12.777344-24.03125-18.972656-34.449218-11.730469-19.703126 9.125-33.128907-.125-53.886719-3.496094-7.835938-9.902344-13.019531-12.164063-18.507813-.269531-.660156-.484375-1.34375-.648437-2.050781-1.9375-8.359375 4.011718-15.3125 10.597656-17.605469 7.066406-2.46875 15.710938-1.476562 22.003906 2.53125 4.359375 2.78125 7.515625 6.9375 8.65625 11.402344.703125 2.757812.757813 5.96875.816406 9.367188.070313 3.921874.148438 8.363281 1.28125 12.804687 2.429688 9.5625 8.839844 16.625 15.484376 22.464844-1.816407.988281-3.796876 1.875-5.863282 2.800781-2.519531 1.125-5.125 2.292969-7.71875 3.765625zm0 0"></path><path d="m155.6875 321.828125h-123.222656c-17.902344 0-32.464844 14.566406-32.464844 32.464844 0 17.902343 14.5625 32.464843 32.464844 32.464843h8.152344l-6.726563 26.550782c-.027344.085937-.046875.171875-.066406.261718l-9.984375 39.394532c-.0625.207031-.113282.417968-.160156.628906l-12.429688 49.0625c-1.019531 4.015625 1.410156 8.097656 5.429688 9.113281.617187.15625 1.234374.230469 1.847656.230469 3.347656 0 6.402344-2.261719 7.261718-5.660156l11.519532-45.453125 56.765625-19.503907 56.773437 19.507813 11.515625 45.449219c.859375 3.398437 3.914063 5.660156 7.265625 5.660156.609375 0 1.230469-.074219 1.847656-.230469 4.015626-1.019531 6.445313-5.097656 5.429688-9.113281l-12.476562-49.230469c-.023438-.097656-.046876-.199219-.074219-.292969l-16.820313-66.375h8.152344c17.902344 0 32.464844-14.5625 32.464844-32.464843 0-17.898438-14.5625-32.464844-32.464844-32.464844zm-113.980469 121.6875 4.695313-18.515625 24.59375 8.453125zm75.445313-10.0625 24.597656-8.453125 4.691406 18.515625zm20.902344-23.042969-43.980469 15.109375-43.976563-15.109375 5.992188-23.652344h75.96875zm17.632812-38.652344h-105.292969c-.089843-.003906-.175781 0-.261719 0h-17.667968c-9.632813 0-17.464844-7.835937-17.464844-17.464843 0-9.628907 7.832031-17.464844 17.464844-17.464844h123.222656c9.628906 0 17.464844 7.835937 17.464844 17.464844 0 9.628906-7.835938 17.464843-17.464844 17.464843zm0 0"></path><path d="m112.496094 47.074219c-16.449219 0-29.835938 13.386719-29.835938 29.835937 0 16.449219 13.386719 29.832032 29.835938 29.832032 16.449218 0 29.832031-13.382813 29.832031-29.832032 0-16.449218-13.382813-29.835937-29.832031-29.835937zm0 44.667969c-8.179688 0-14.835938-6.652344-14.835938-14.832032 0-8.179687 6.65625-14.835937 14.835938-14.835937 8.179687 0 14.832031 6.65625 14.832031 14.835937 0 8.179688-6.652344 14.832032-14.832031 14.832032zm0 0"></path></svg>