<svg xmlns="http://www.w3.org/2000/svg" height="512" viewBox="0 0 512 512" width="512"><g><g><path d="m112 16h288v392h-288z" fill="#e0e0e2"></path><path d="m144 48h224v328h-224z" fill="#83d8f4"></path><g><path d="m344 253.33v42.67h-80l-28-37.33 56-74.67z" fill="#4e901e"></path><path d="m344 120v133.33l-52-69.33-56 74.67 28 37.33h-96v-176z" fill="#78b9eb"></path><circle cx="216" cy="176" fill="#ffda44" r="24"></circle><path d="m264 296h-96l48-64 20 26.67z" fill="#91cc04"></path></g><path d="m192 408h128v64h-128z" fill="#787680"></path><path d="m112 472h288v24h-288z" fill="#e0e0e2"></path></g><g><path d="m168 304h176a8 8 0 0 0 8-8v-176a8 8 0 0 0 -8-8h-176a8 8 0 0 0 -8 8v176a8 8 0 0 0 8 8zm80-16h-64l32-42.667zm20 0-22-29.332 46-61.335 44 58.667v32zm68-160v101.331l-37.6-50.131a8 8 0 0 0 -12.8 0l-49.6 66.135-13.6-18.135a8 8 0 0 0 -12.8 0l-33.6 44.8v-144z"></path><path d="m216 208a32 32 0 1 0 -32-32 32.036 32.036 0 0 0 32 32zm0-48a16 16 0 1 1 -16 16 16.019 16.019 0 0 1 16-16z"></path><path d="m400 416a8 8 0 0 0 8-8v-392a8 8 0 0 0 -8-8h-288a8 8 0 0 0 -8 8v392a8 8 0 0 0 8 8h72v48h-72a8 8 0 0 0 -8 8v24a8 8 0 0 0 8 8h288a8 8 0 0 0 8-8v-24a8 8 0 0 0 -8-8h-72v-48zm-8 64v8h-272v-8zm-192-16v-48h112v48zm-80-64v-376h272v376z"></path><path d="m376 376v-328a8 8 0 0 0 -8-8h-224a8 8 0 0 0 -8 8v328a8 8 0 0 0 8 8h224a8 8 0 0 0 8-8zm-16-8h-208v-312h208z"></path></g></g></svg>